{"title":"Mad Max Fury Road 2015 CAMRip v2 XviD MP3 Idiocracy","uid":11953683,"size":952664064,"categoryP":"video","categoryS":"movies","magnet":"?xt=urn:btih:7cf5a17ba825b024888b19d623c7f43d285f704f&amp;dn=Mad+Max+Fury+Road+2015+CAMRip+v2+XviD+MP3+Idiocracy&amp;tr=udp%3A%2F%2Ftracker.openbittorrent.com%3A80&amp;tr=udp%3A%2F%2Fopen.demonii.com%3A1337&amp;tr=udp%3A%2F%2Ftracker.coppersurfer.tk%3A6969&amp;tr=udp%3A%2F%2Fexodus.desync.com%3A6969","seeders":1,"leechers":0,"uploader":"Satafakap","files":2,"time":1432289065,"description":"Synopsis / Plot\n\nIn a stark desert landscape where humanity is broken, two rebels just might be able to restore order: Max, a man of action and of few words, and Furiosa, a woman of action who is looking to make it back to her childhood homeland.\n\nDirector: George Miller\nWriters: George Miller, Brendan McCarthy\nStars: Tom Hardy, Charlize Theron, Nicholas Hoult \n &lt;a href=&quot;\nhttp://www.imdb.com/title/tt1392190/&quot; rel=&quot;nofollow&quot; target=&quot;_NEW&quot;&gt;\nhttp://www.imdb.com/title/tt1392190/&lt;/a&gt;\n\nGeneral\n\nComplete name       : Mad.Max.Fury.Road.2015.CAMRip.v2.XviD.MP3-Idiocracy.avi\nFormat              : AVI\nFormat/Info         : Audio Video Interleave\nFile size           : 898 MiB\nDuration            : 1h 52mn\nOverall bit rate    : 1 112 Kbps\nWriting application : VirtualDubMod 1.5.10.3 | www.virtualdub-fr.org\nWriting library     : VirtualDubMod build 2550/release\nSource              : XemVn.net - Thanks!\nSample              : Yes\n\nVideo\n\nID                                       : 0\nFormat                                   : MPEG-4 Visual\nFormat profile                           : Advanced Simple@L5\nFormat settings, BVOP                    : 2\nFormat settings, QPel                    : No\nFormat settings, GMC                     : No warppoints\nFormat settings, Matrix                  : Default (H.263)\nMuxing mode                              : Packed bitstream\nCodec ID                                 : XVID\nCodec ID/Hint                            : XviD\nDuration                                 : 1h 52mn\nBit rate                                 : 975 Kbps\nWidth                                    : 640 pixels\nHeight                                   : 360 pixels\nDisplay aspect ratio                     : 16:9\nFrame rate                               : 23.976 fps\nColor space                              : YUV\nChroma subsampling                       : 4:2:0\nBit depth                                : 8 bits\nScan type                                : Progressive\nCompression mode                         : Lossy\nBits/(Pixel*Frame)                       : 0.176\nStream size                              : 787 MiB (88%)\nWriting library                          : XviD 64\n\nAudio\n\nID                                       : 1\nFormat                                   : MPEG Audio\nFormat version                           : Version 1\nFormat profile                           : Layer 3\nMode                                     : Joint stereo\nMode extension                           : MS Stereo\nCodec ID                                 : 55\nCodec ID/Hint                            : MP3\nDuration                                 : 1h 52mn\nBit rate mode                            : Constant\nBit rate                                 : 128 Kbps\nChannel(s)                               : 2 channels\nSampling rate                            : 44.1 KHz\nCompression mode                         : Lossy\nStream size                              : 103 MiB (11%)\nAlignment                                : Split accross interleaves\nInterleave, duration                     : 42 ms (1.00 video frame)\nInterleave, preload duration             : 501 ms\nScreenshots:\n &lt;a href=&quot;\nhttp://i.imgur.com/bSsOHhA.jpg&quot; rel=&quot;nofollow&quot; target=&quot;_NEW&quot;&gt;\nhttp://i.imgur.com/bSsOHhA.jpg&lt;/a&gt;\n &lt;a href=&quot;\nhttp://i.imgur.com/cCJbEed.jpg&quot; rel=&quot;nofollow&quot; target=&quot;_NEW&quot;&gt;\nhttp://i.imgur.com/cCJbEed.jpg&lt;/a&gt;\n &lt;a href=&quot;\nhttp://i.imgur.com/dqJtkIc.jpg&quot; rel=&quot;nofollow&quot; target=&quot;_NEW&quot;&gt;\nhttp://i.imgur.com/dqJtkIc.jpg&lt;/a&gt;\n &lt;a href=&quot;\nhttp://i.imgur.com/eSlZKiC.jpg&quot; rel=&quot;nofollow&quot; target=&quot;_NEW&quot;&gt;\nhttp://i.imgur.com/eSlZKiC.jpg&lt;/a&gt;\n &lt;a href=&quot;\nhttp://i.imgur.com/IUX3w9v.jpg&quot; rel=&quot;nofollow&quot; target=&quot;_NEW&quot;&gt;\nhttp://i.imgur.com/IUX3w9v.jpg&lt;/a&gt;","torrent":{"xt":"urn:btih:7cf5a17ba825b024888b19d623c7f43d285f704f","amp;dn":"Mad+Max+Fury+Road+2015+CAMRip+v2+XviD+MP3+Idiocracy","amp;tr":["udp%3A%2F%2Ftracker.openbittorrent.com%3A80","udp%3A%2F%2Fopen.demonii.com%3A1337","udp%3A%2F%2Ftracker.coppersurfer.tk%3A6969","udp%3A%2F%2Fexodus.desync.com%3A6969"],"infoHash":"7cf5a17ba825b024888b19d623c7f43d285f704f","infoHashBuffer":{"type":"Buffer","data":[124,245,161,123,168,37,176,36,136,139,25,214,35,199,244,61,40,95,112,79]},"announce":[],"urlList":[]}}